<?xml version="1.0" encoding="UTF-8" standalone="no"?>
<!DOCTYPE svg PUBLIC "-//W3C//DTD SVG 1.1//EN"
        "http://www.w3.org/Graphics/SVG/1.1/DTD/svg11.dtd">
<!-- Generated by graphviz version 2.43.0 (0)
 -->
<!-- Title: box Pages: 1 -->
<svg width="1369pt" height="515pt"
     viewBox="0.00 0.00 1369.00 514.50" xmlns="http://www.w3.org/2000/svg" xmlns:xlink="http://www.w3.org/1999/xlink">
    <g id="graph0" class="graph" transform="scale(1 1) rotate(0) translate(4 510.5)">
        <title>box</title>
        <polygon fill="white" stroke="transparent" points="-4,4 -4,-510.5 1365,-510.5 1365,4 -4,4"/>
        <text text-anchor="middle" x="680.5" y="-480.1" font-family="Helvetica,sans-Serif" font-size="28.00">Освещение в коридоре</text>
        <text text-anchor="middle" x="680.5" y="-449.1" font-family="Helvetica,sans-Serif" font-size="28.00">Проходной выключатель (230V)</text>
        <g id="clust1" class="cluster">
            <title>cluster_r_hi</title>
        </g>
        <!-- PE -->
        <g id="node1" class="node">
            <title>PE</title>
            <ellipse fill="none" stroke="black" cx="798.5" cy="-57.5" rx="27" ry="18"/>
            <text text-anchor="middle" x="798.5" y="-53.8" font-family="Times,serif" font-size="14.00">PE</text>
        </g>
        <!-- r9 -->
        <g id="node2" class="node">
            <title>r9</title>
            <polygon fill="gray" stroke="transparent" points="1144.5,-393.5 1144.5,-394.5 1145.5,-394.5 1145.5,-393.5 1144.5,-393.5"/>
            <text text-anchor="start" x="1144.5" y="-393.7" font-family="Courier,monospace" font-size="1.00"> </text>
            <polygon fill="gray" stroke="transparent" points="1145.5,-393.5 1145.5,-394.5 1318.5,-394.5 1318.5,-393.5 1145.5,-393.5"/>
            <polygon fill="gray" stroke="transparent" points="1318.5,-393.5 1318.5,-394.5 1319.5,-394.5 1319.5,-393.5 1318.5,-393.5"/>
            <polygon fill="white" stroke="transparent" points="1319.5,-393.5 1319.5,-394.5 1319.5,-394.5 1319.5,-393.5 1319.5,-393.5"/>
            <polygon fill="brown" stroke="transparent" points="1319.5,-393.5 1319.5,-394.5 1328.5,-394.5 1328.5,-393.5 1319.5,-393.5"/>
            <polygon fill="white" stroke="transparent" points="1328.5,-393.5 1328.5,-394.5 1328.5,-394.5 1328.5,-393.5 1328.5,-393.5"/>
            <polygon fill="blue" stroke="transparent" points="1328.5,-393.5 1328.5,-394.5 1337.5,-394.5 1337.5,-393.5 1328.5,-393.5"/>
            <polygon fill="gray" stroke="transparent" points="1144.5,-378.5 1144.5,-393.5 1145.5,-393.5 1145.5,-378.5 1144.5,-378.5"/>
            <text text-anchor="start" x="1198" y="-382.9" font-family="Courier,monospace" font-size="12.00"> QD9 УЗО </text>
            <polygon fill="gray" stroke="transparent" points="1318.5,-378.5 1318.5,-393.5 1319.5,-393.5 1319.5,-378.5 1318.5,-378.5"/>
            <text text-anchor="start" x="1318.5" y="-385.7" font-family="Courier,monospace" font-size="1.00"> </text>
            <polygon fill="white" stroke="transparent" points="1319.5,-378.5 1319.5,-393.5 1319.5,-393.5 1319.5,-378.5 1319.5,-378.5"/>
            <polygon fill="brown" stroke="transparent" points="1319.5,-378.5 1319.5,-393.5 1328.5,-393.5 1328.5,-378.5 1319.5,-378.5"/>
            <text text-anchor="start" x="1319.5" y="-382.3" font-family="Courier,monospace" font-size="14.00"> </text>
            <polygon fill="white" stroke="transparent" points="1328.5,-378.5 1328.5,-393.5 1328.5,-393.5 1328.5,-378.5 1328.5,-378.5"/>
            <polygon fill="blue" stroke="transparent" points="1328.5,-378.5 1328.5,-393.5 1337.5,-393.5 1337.5,-378.5 1328.5,-378.5"/>
            <text text-anchor="start" x="1328.5" y="-382.3" font-family="Courier,monospace" font-size="14.00"> </text>
            <polygon fill="gray" stroke="transparent" points="1144.5,-356.5 1144.5,-378.5 1145.5,-378.5 1145.5,-356.5 1144.5,-356.5"/>
            <text text-anchor="start" x="1225.5" y="-362.5" font-family="Courier,monospace" font-size="20.00">L</text>
            <polygon fill="gray" stroke="transparent" points="1318.5,-356.5 1318.5,-378.5 1319.5,-378.5 1319.5,-356.5 1318.5,-356.5"/>
            <polygon fill="white" stroke="transparent" points="1319.5,-356.5 1319.5,-378.5 1319.5,-378.5 1319.5,-356.5 1319.5,-356.5"/>
            <polygon fill="brown" stroke="transparent" points="1319.5,-356.5 1319.5,-378.5 1328.5,-378.5 1328.5,-356.5 1319.5,-356.5"/>
            <text text-anchor="start" x="1319.5" y="-363.8" font-family="Courier,monospace" font-size="14.00"> </text>
            <polygon fill="white" stroke="transparent" points="1328.5,-356.5 1328.5,-378.5 1328.5,-378.5 1328.5,-356.5 1328.5,-356.5"/>
            <polygon fill="blue" stroke="transparent" points="1328.5,-356.5 1328.5,-378.5 1337.5,-378.5 1337.5,-356.5 1328.5,-356.5"/>
            <text text-anchor="start" x="1328.5" y="-363.8" font-family="Courier,monospace" font-size="14.00"> </text>
            <polygon fill="gray" stroke="transparent" points="1144.5,-332.5 1144.5,-356.5 1145.5,-356.5 1145.5,-332.5 1144.5,-332.5"/>
            <text text-anchor="start" x="1200" y="-339.9" font-family="Courier,monospace" font-size="14.00"> </text>
            <text text-anchor="start" x="1209" y="-339.9" font-family="Courier,monospace" font-size="22.00">свет</text>
            <polygon fill="gray" stroke="transparent" points="1318.5,-332.5 1318.5,-356.5 1319.5,-356.5 1319.5,-332.5 1318.5,-332.5"/>
            <polygon fill="white" stroke="transparent" points="1319.5,-332.5 1319.5,-356.5 1319.5,-356.5 1319.5,-332.5 1319.5,-332.5"/>
            <polygon fill="white" stroke="transparent" points="1319.5,-332.5 1319.5,-356.5 1328.5,-356.5 1328.5,-332.5 1319.5,-332.5"/>
            <text text-anchor="start" x="1319.5" y="-340.8" font-family="Courier,monospace" font-size="14.00"> </text>
            <polygon fill="white" stroke="transparent" points="1328.5,-332.5 1328.5,-356.5 1328.5,-356.5 1328.5,-332.5 1328.5,-332.5"/>
            <polygon fill="blue" stroke="transparent" points="1328.5,-332.5 1328.5,-356.5 1337.5,-356.5 1337.5,-332.5 1328.5,-332.5"/>
            <text text-anchor="start" x="1328.5" y="-340.8" font-family="Courier,monospace" font-size="14.00"> </text>
            <polygon fill="gray" stroke="transparent" points="1144.5,-310.5 1144.5,-332.5 1145.5,-332.5 1145.5,-310.5 1144.5,-310.5"/>
            <text text-anchor="start" x="1225.5" y="-316.5" font-family="Courier,monospace" font-size="20.00">N</text>
            <polygon fill="gray" stroke="transparent" points="1318.5,-310.5 1318.5,-332.5 1319.5,-332.5 1319.5,-310.5 1318.5,-310.5"/>
            <polygon fill="white" stroke="transparent" points="1319.5,-310.5 1319.5,-332.5 1319.5,-332.5 1319.5,-310.5 1319.5,-310.5"/>
            <polygon fill="white" stroke="transparent" points="1319.5,-310.5 1319.5,-332.5 1328.5,-332.5 1328.5,-310.5 1319.5,-310.5"/>
            <text text-anchor="start" x="1319.5" y="-317.8" font-family="Courier,monospace" font-size="14.00"> </text>
            <polygon fill="white" stroke="transparent" points="1328.5,-310.5 1328.5,-332.5 1328.5,-332.5 1328.5,-310.5 1328.5,-310.5"/>
            <polygon fill="blue" stroke="transparent" points="1328.5,-310.5 1328.5,-332.5 1337.5,-332.5 1337.5,-310.5 1328.5,-310.5"/>
            <text text-anchor="start" x="1328.5" y="-317.8" font-family="Courier,monospace" font-size="14.00"> </text>
            <polygon fill="gray" stroke="transparent" points="1144.5,-295.5 1144.5,-310.5 1145.5,-310.5 1145.5,-295.5 1144.5,-295.5"/>
            <text text-anchor="start" x="1145.5" y="-299.9" font-family="Courier,monospace" font-size="12.00"> ABB F202 25A 30mA (A) </text>
            <polygon fill="gray" stroke="transparent" points="1318.5,-295.5 1318.5,-310.5 1319.5,-310.5 1319.5,-295.5 1318.5,-295.5"/>
            <polygon fill="white" stroke="transparent" points="1319.5,-295.5 1319.5,-310.5 1319.5,-310.5 1319.5,-295.5 1319.5,-295.5"/>
            <polygon fill="white" stroke="transparent" points="1319.5,-295.5 1319.5,-310.5 1328.5,-310.5 1328.5,-295.5 1319.5,-295.5"/>
            <text text-anchor="start" x="1319.5" y="-299.3" font-family="Courier,monospace" font-size="14.00"> </text>
            <polygon fill="white" stroke="transparent" points="1328.5,-295.5 1328.5,-310.5 1328.5,-310.5 1328.5,-295.5 1328.5,-295.5"/>
            <polygon fill="white" stroke="transparent" points="1328.5,-295.5 1328.5,-310.5 1337.5,-310.5 1337.5,-295.5 1328.5,-295.5"/>
            <text text-anchor="start" x="1328.5" y="-299.3" font-family="Courier,monospace" font-size="14.00"> </text>
            <polygon fill="gray" stroke="transparent" points="1144.5,-294.5 1144.5,-295.5 1145.5,-295.5 1145.5,-294.5 1144.5,-294.5"/>
            <text text-anchor="start" x="1144.5" y="-294.7" font-family="Courier,monospace" font-size="1.00"> </text>
            <polygon fill="gray" stroke="transparent" points="1145.5,-294.5 1145.5,-295.5 1318.5,-295.5 1318.5,-294.5 1145.5,-294.5"/>
            <polygon fill="gray" stroke="transparent" points="1318.5,-294.5 1318.5,-295.5 1319.5,-295.5 1319.5,-294.5 1318.5,-294.5"/>
            <polygon fill="white" stroke="transparent" points="1319.5,-294.5 1319.5,-295.5 1319.5,-295.5 1319.5,-294.5 1319.5,-294.5"/>
            <polygon fill="white" stroke="transparent" points="1319.5,-294.5 1319.5,-295.5 1328.5,-295.5 1328.5,-294.5 1319.5,-294.5"/>
            <polygon fill="white" stroke="transparent" points="1328.5,-294.5 1328.5,-295.5 1328.5,-295.5 1328.5,-294.5 1328.5,-294.5"/>
            <polygon fill="white" stroke="transparent" points="1328.5,-294.5 1328.5,-295.5 1337.5,-295.5 1337.5,-294.5 1328.5,-294.5"/>
        </g>
        <!-- r8 -->
        <g id="node3" class="node">
            <title>r8</title>
            <polygon fill="gray" stroke="transparent" points="1128.5,-163.5 1128.5,-164.5 1129.5,-164.5 1129.5,-163.5 1128.5,-163.5"/>
            <text text-anchor="start" x="1128.5" y="-163.7" font-family="Courier,monospace" font-size="1.00"> </text>
            <polygon fill="gray" stroke="transparent" points="1129.5,-163.5 1129.5,-164.5 1343.5,-164.5 1343.5,-163.5 1129.5,-163.5"/>
            <polygon fill="gray" stroke="transparent" points="1343.5,-163.5 1343.5,-164.5 1344.5,-164.5 1344.5,-163.5 1343.5,-163.5"/>
            <polygon fill="white" stroke="transparent" points="1344.5,-163.5 1344.5,-164.5 1344.5,-164.5 1344.5,-163.5 1344.5,-163.5"/>
            <polygon fill="brown" stroke="transparent" points="1344.5,-163.5 1344.5,-164.5 1353.5,-164.5 1353.5,-163.5 1344.5,-163.5"/>
            <polygon fill="gray" stroke="transparent" points="1128.5,-148.5 1128.5,-163.5 1129.5,-163.5 1129.5,-148.5 1128.5,-148.5"/>
            <text text-anchor="start" x="1162" y="-154.1" font-family="Courier,monospace" font-size="8.00"> QF92 автоматический выключатель </text>
            <polygon fill="gray" stroke="transparent" points="1343.5,-148.5 1343.5,-163.5 1344.5,-163.5 1344.5,-148.5 1343.5,-148.5"/>
            <text text-anchor="start" x="1343.5" y="-155.7" font-family="Courier,monospace" font-size="1.00"> </text>
            <polygon fill="white" stroke="transparent" points="1344.5,-148.5 1344.5,-163.5 1344.5,-163.5 1344.5,-148.5 1344.5,-148.5"/>
            <polygon fill="brown" stroke="transparent" points="1344.5,-148.5 1344.5,-163.5 1353.5,-163.5 1353.5,-148.5 1344.5,-148.5"/>
            <text text-anchor="start" x="1344.5" y="-152.3" font-family="Courier,monospace" font-size="14.00"> </text>
            <polygon fill="gray" stroke="transparent" points="1128.5,-130.5 1128.5,-148.5 1129.5,-148.5 1129.5,-130.5 1128.5,-130.5"/>
            <text text-anchor="start" x="1129.5" y="-136.7" font-family="Courier,monospace" font-size="14.00"> </text>
            <text text-anchor="start" x="1138.5" y="-136.7" font-family="Courier,monospace" font-size="16.00">свет кухня + прихожая</text>
            <polygon fill="gray" stroke="transparent" points="1343.5,-130.5 1343.5,-148.5 1344.5,-148.5 1344.5,-130.5 1343.5,-130.5"/>
            <polygon fill="white" stroke="transparent" points="1344.5,-130.5 1344.5,-148.5 1344.5,-148.5 1344.5,-130.5 1344.5,-130.5"/>
            <polygon fill="brown" stroke="transparent" points="1344.5,-130.5 1344.5,-148.5 1353.5,-148.5 1353.5,-130.5 1344.5,-130.5"/>
            <text text-anchor="start" x="1344.5" y="-135.8" font-family="Courier,monospace" font-size="14.00"> </text>
            <polygon fill="gray" stroke="transparent" points="1128.5,-115.5 1128.5,-130.5 1129.5,-130.5 1129.5,-115.5 1128.5,-115.5"/>
            <text text-anchor="start" x="1198" y="-121.1" font-family="Courier,monospace" font-size="8.00"> ABB S201 (B) 6A </text>
            <polygon fill="gray" stroke="transparent" points="1343.5,-115.5 1343.5,-130.5 1344.5,-130.5 1344.5,-115.5 1343.5,-115.5"/>
            <polygon fill="white" stroke="transparent" points="1344.5,-115.5 1344.5,-130.5 1344.5,-130.5 1344.5,-115.5 1344.5,-115.5"/>
            <polygon fill="brown" stroke="transparent" points="1344.5,-115.5 1344.5,-130.5 1353.5,-130.5 1353.5,-115.5 1344.5,-115.5"/>
            <text text-anchor="start" x="1344.5" y="-119.3" font-family="Courier,monospace" font-size="14.00"> </text>
            <polygon fill="gray" stroke="transparent" points="1128.5,-114.5 1128.5,-115.5 1129.5,-115.5 1129.5,-114.5 1128.5,-114.5"/>
            <text text-anchor="start" x="1128.5" y="-114.7" font-family="Courier,monospace" font-size="1.00"> </text>
            <polygon fill="gray" stroke="transparent" points="1129.5,-114.5 1129.5,-115.5 1343.5,-115.5 1343.5,-114.5 1129.5,-114.5"/>
            <polygon fill="gray" stroke="transparent" points="1343.5,-114.5 1343.5,-115.5 1344.5,-115.5 1344.5,-114.5 1343.5,-114.5"/>
            <polygon fill="white" stroke="transparent" points="1344.5,-114.5 1344.5,-115.5 1344.5,-115.5 1344.5,-114.5 1344.5,-114.5"/>
            <polygon fill="brown" stroke="transparent" points="1344.5,-114.5 1344.5,-115.5 1353.5,-115.5 1353.5,-114.5 1344.5,-114.5"/>
        </g>
        <!-- r_hi -->
        <g id="node4" class="node">
            <title>r_hi</title>
            <text text-anchor="start" x="761.5" y="-365.3" font-family="Courier,monospace" font-size="14.00">Клеммники</text>
            <text text-anchor="start" x="753.5" y="-350.3" font-family="Courier,monospace" font-size="14.00">3&#45;уровневые</text>
            <polygon fill="#e0e0e0" stroke="transparent" points="702.5,-329.5 702.5,-346.5 895.5,-346.5 895.5,-329.5 702.5,-329.5"/>
            <polygon fill="none" stroke="black" points="702.5,-329.5 702.5,-346.5 895.5,-346.5 895.5,-329.5 702.5,-329.5"/>
            <text text-anchor="start" x="703.5" y="-335.3" font-family="Courier,monospace" font-weight="bold" font-size="14.00" fill="darkblue">X20</text>
            <text text-anchor="start" x="728.5" y="-335.3" font-family="Courier,monospace" font-weight="bold" font-size="14.00">|</text>
            <text text-anchor="start" x="737.5" y="-335.3" font-family="Courier,monospace" font-size="14.00">свет прихожая</text>
            <polygon fill="none" stroke="black" points="702.5,-312.5 702.5,-329.5 895.5,-329.5 895.5,-312.5 702.5,-312.5"/>
            <text text-anchor="start" x="703.5" y="-318.3" font-family="Courier,monospace" font-weight="bold" font-size="14.00" fill="darkcyan">вер</text>
            <text text-anchor="start" x="728.5" y="-318.3" font-family="Courier,monospace" font-weight="bold" font-size="14.00">|</text>
            <text text-anchor="start" x="737.5" y="-318.3" font-family="Courier,monospace" font-size="14.00"> св общий</text>
            <polygon fill="none" stroke="black" points="702.5,-295.5 702.5,-312.5 895.5,-312.5 895.5,-295.5 702.5,-295.5"/>
            <text text-anchor="start" x="703.5" y="-301.3" font-family="Courier,monospace" font-weight="bold" font-size="14.00" fill="darkcyan">сре</text>
            <text text-anchor="start" x="728.5" y="-301.3" font-family="Courier,monospace" font-weight="bold" font-size="14.00">|</text>
            <text text-anchor="start" x="737.5" y="-301.3" font-family="Courier,monospace" font-size="14.00"> св 1</text>
            <polygon fill="none" stroke="black" points="702.5,-278.5 702.5,-295.5 895.5,-295.5 895.5,-278.5 702.5,-278.5"/>
            <text text-anchor="start" x="703.5" y="-284.3" font-family="Courier,monospace" font-weight="bold" font-size="14.00" fill="darkcyan">ниж</text>
            <text text-anchor="start" x="728.5" y="-284.3" font-family="Courier,monospace" font-weight="bold" font-size="14.00">|</text>
            <text text-anchor="start" x="737.5" y="-284.3" font-family="Courier,monospace" font-size="14.00"> св 2</text>
            <text text-anchor="start" x="794.5" y="-267.3" font-family="Courier,monospace" font-size="14.00"> </text>
            <text text-anchor="start" x="761.5" y="-252.3" font-family="Courier,monospace" font-size="14.00">Клеммники</text>
            <text text-anchor="start" x="753.5" y="-237.3" font-family="Courier,monospace" font-size="14.00">3&#45;уровневые</text>
            <polygon fill="#e0e0e0" stroke="transparent" points="702.5,-216.5 702.5,-233.5 895.5,-233.5 895.5,-216.5 702.5,-216.5"/>
            <polygon fill="none" stroke="black" points="702.5,-216.5 702.5,-233.5 895.5,-233.5 895.5,-216.5 702.5,-216.5"/>
            <text text-anchor="start" x="703.5" y="-222.3" font-family="Courier,monospace" font-weight="bold" font-size="14.00" fill="darkblue">X26</text>
            <text text-anchor="start" x="728.5" y="-222.3" font-family="Courier,monospace" font-weight="bold" font-size="14.00">|</text>
            <text text-anchor="start" x="737.5" y="-222.3" font-family="Courier,monospace" font-size="14.00">выкл коридор &#160;&#160;&#160;&#160;&#160;&#160;</text>
            <polygon fill="none" stroke="black" points="702.5,-199.5 702.5,-216.5 895.5,-216.5 895.5,-199.5 702.5,-199.5"/>
            <text text-anchor="start" x="703.5" y="-205.3" font-family="Courier,monospace" font-weight="bold" font-size="14.00" fill="darkcyan">вер</text>
            <text text-anchor="start" x="728.5" y="-205.3" font-family="Courier,monospace" font-weight="bold" font-size="14.00">|</text>
            <text text-anchor="start" x="737.5" y="-205.3" font-family="Courier,monospace" font-size="14.00"> св общий</text>
            <polygon fill="none" stroke="black" points="702.5,-182.5 702.5,-199.5 895.5,-199.5 895.5,-182.5 702.5,-182.5"/>
            <text text-anchor="start" x="703.5" y="-188.3" font-family="Courier,monospace" font-weight="bold" font-size="14.00" fill="darkcyan">сре</text>
            <text text-anchor="start" x="728.5" y="-188.3" font-family="Courier,monospace" font-weight="bold" font-size="14.00">|</text>
            <text text-anchor="start" x="737.5" y="-188.3" font-family="Courier,monospace" font-size="14.00"> св 1</text>
            <polygon fill="none" stroke="black" points="702.5,-165.5 702.5,-182.5 895.5,-182.5 895.5,-165.5 702.5,-165.5"/>
            <text text-anchor="start" x="703.5" y="-171.3" font-family="Courier,monospace" font-weight="bold" font-size="14.00" fill="darkcyan">ниж</text>
            <text text-anchor="start" x="728.5" y="-171.3" font-family="Courier,monospace" font-weight="bold" font-size="14.00">|</text>
            <text text-anchor="start" x="737.5" y="-171.3" font-family="Courier,monospace" font-size="14.00"> св 2</text>
            <polygon fill="#e0e0e0" stroke="transparent" points="702.5,-148.5 702.5,-165.5 895.5,-165.5 895.5,-148.5 702.5,-148.5"/>
            <polygon fill="none" stroke="black" points="702.5,-148.5 702.5,-165.5 895.5,-165.5 895.5,-148.5 702.5,-148.5"/>
            <text text-anchor="start" x="703.5" y="-154.3" font-family="Courier,monospace" font-weight="bold" font-size="14.00" fill="darkblue">X27</text>
            <text text-anchor="start" x="728.5" y="-154.3" font-family="Courier,monospace" font-weight="bold" font-size="14.00">|</text>
            <text text-anchor="start" x="737.5" y="-154.3" font-family="Courier,monospace" font-size="14.00">выкл прихожая вход </text>
            <polygon fill="none" stroke="black" points="702.5,-131.5 702.5,-148.5 895.5,-148.5 895.5,-131.5 702.5,-131.5"/>
            <text text-anchor="start" x="703.5" y="-137.3" font-family="Courier,monospace" font-weight="bold" font-size="14.00" fill="darkcyan">вер</text>
            <text text-anchor="start" x="728.5" y="-137.3" font-family="Courier,monospace" font-weight="bold" font-size="14.00">|</text>
            <text text-anchor="start" x="737.5" y="-137.3" font-family="Courier,monospace" font-size="14.00"> св общий</text>
            <polygon fill="none" stroke="black" points="702.5,-114.5 702.5,-131.5 895.5,-131.5 895.5,-114.5 702.5,-114.5"/>
            <text text-anchor="start" x="703.5" y="-120.3" font-family="Courier,monospace" font-weight="bold" font-size="14.00" fill="darkcyan">сре</text>
            <text text-anchor="start" x="728.5" y="-120.3" font-family="Courier,monospace" font-weight="bold" font-size="14.00">|</text>
            <text text-anchor="start" x="737.5" y="-120.3" font-family="Courier,monospace" font-size="14.00"> св 1</text>
            <polygon fill="none" stroke="black" points="702.5,-97.5 702.5,-114.5 895.5,-114.5 895.5,-97.5 702.5,-97.5"/>
            <text text-anchor="start" x="703.5" y="-103.3" font-family="Courier,monospace" font-weight="bold" font-size="14.00" fill="darkcyan">ниж</text>
            <text text-anchor="start" x="728.5" y="-103.3" font-family="Courier,monospace" font-weight="bold" font-size="14.00">|</text>
            <text text-anchor="start" x="737.5" y="-103.3" font-family="Courier,monospace" font-size="14.00"> св 2</text>
        </g>
        <!-- r_hi&#45;&gt;r9 -->
        <g id="edge11" class="edge">
            <title>r_hi:l_hall__top&#45;&gt;r9:rccb_light__n</title>
            <path fill="none" stroke="Blue" stroke-width="3" d="M896.5,-321.5C981.16,-321.5 1077.89,-321.5 1145.39,-321.5"/>
        </g>
        <!-- r_hi&#45;&gt;r8 -->
        <g id="edge10" class="edge">
            <title>r_hi:hall_btn_entrance__top&#45;&gt;r8:cb_l_kitchen_hall</title>
            <path fill="none" stroke="Brown" stroke-width="3" d="M896.5,-139.5C974.48,-139.5 1062.55,-139.5 1129.38,-139.5"/>
        </g>
        <!-- r_hi&#45;&gt;r_hi -->
        <g id="edge15" class="edge">
            <title>r_hi:e&#45;&gt;r_hi:e</title>
            <path fill="none" stroke="Black" stroke-width="4" d="M895.5,-122.5C938.33,-113.5 1009,-113.5 1009,-156.5 1009,-199.5 938.33,-199.5 895.5,-190.5"/>
        </g>
        <!-- r_hi&#45;&gt;r_hi -->
        <g id="edge16" class="edge">
            <title>r_hi:e&#45;&gt;r_hi:e</title>
            <path fill="none" stroke="Black" stroke-width="4" d="M895.5,-105.5C938.33,-96.5 1009,-96.5 1009,-139.5 1009,-182.5 938.33,-182.5 895.5,-173.5"/>
        </g>
        <!-- r_hi&#45;&gt;r_hi -->
        <g id="edge17" class="edge">
            <title>r_hi:e&#45;&gt;r_hi:e</title>
            <path fill="none" stroke="Black" stroke-width="4" d="M895.5,-207.5C938.33,-198.5 1009,-198.5 1009,-256 1009,-313.5 938.33,-313.5 895.5,-304.5"/>
        </g>
        <!-- c_corr_b_s -->
        <g id="node5" class="node">
            <title>c_corr_b_s</title>
            <polygon fill="#202020" stroke="transparent" points="330.5,-66.5 330.5,-128.5 469.5,-128.5 469.5,-66.5 330.5,-66.5"/>
            <polygon fill="none" stroke="black" points="330.5,-66.5 330.5,-128.5 469.5,-128.5 469.5,-66.5 330.5,-66.5"/>
            <text text-anchor="start" x="375" y="-115.3" font-family="Courier,monospace" font-weight="bold" font-size="14.00" fill="white">кабель</text>
            <text text-anchor="start" x="366.5" y="-101.3" font-family="Courier,monospace" font-weight="bold" font-size="14.00" fill="white">3x1.5мм2</text>
            <text text-anchor="start" x="350" y="-87.3" font-family="Courier,monospace" font-weight="bold" font-size="14.00" fill="white">выкл коридор</text>
            <text text-anchor="start" x="366.5" y="-73.3" font-family="Courier,monospace" font-weight="bold" font-size="14.00" fill="white">(начало)</text>
            <polygon fill="#ffffff" stroke="transparent" points="330.5,-45.5 330.5,-66.5 469.5,-66.5 469.5,-45.5 330.5,-45.5"/>
            <polygon fill="none" stroke="black" points="330.5,-45.5 330.5,-66.5 469.5,-66.5 469.5,-45.5 330.5,-45.5"/>
            <text text-anchor="start" x="333.5" y="-52.3" font-family="Courier,monospace" font-size="14.00">синий &#160;&#160;&#160;&#160;&#160;&#160;&#160;&#160;&#160;&#160;</text>
            <polygon fill="#ffffff" stroke="transparent" points="330.5,-24.5 330.5,-45.5 469.5,-45.5 469.5,-24.5 330.5,-24.5"/>
            <polygon fill="none" stroke="black" points="330.5,-24.5 330.5,-45.5 469.5,-45.5 469.5,-24.5 330.5,-24.5"/>
            <text text-anchor="start" x="333.5" y="-31.3" font-family="Courier,monospace" font-size="14.00">коричневый &#160;&#160;&#160;&#160;&#160;</text>
            <polygon fill="#ffffff" stroke="transparent" points="330.5,-3.5 330.5,-24.5 469.5,-24.5 469.5,-3.5 330.5,-3.5"/>
            <polygon fill="none" stroke="black" points="330.5,-3.5 330.5,-24.5 469.5,-24.5 469.5,-3.5 330.5,-3.5"/>
            <text text-anchor="start" x="333.5" y="-10.3" font-family="Courier,monospace" font-size="14.00">жёлто&#45;зеленый &#160;&#160;</text>
        </g>
        <!-- c_corr_b_s&#45;&gt;r_hi -->
        <g id="edge1" class="edge">
            <title>c_corr_b_s:i_brown&#45;&gt;r_hi:hall_btn_entrance__top</title>
            <path fill="none" stroke="Brown" stroke-width="2" d="M470.5,-34.5C583.28,-34.5 588.72,-139.5 701.5,-139.5"/>
        </g>
        <!-- c_corr_b_s&#45;&gt;r_hi -->
        <g id="edge2" class="edge">
            <title>c_corr_b_s:i_blue&#45;&gt;r_hi:hall_btn_entrance__mid</title>
            <path fill="none" stroke="Blue" stroke-width="2" d="M470.5,-55.5C524.55,-55.5 533.08,-81.47 585,-96.5 635.96,-111.25 648.45,-122.5 701.5,-122.5"/>
        </g>
        <!-- c_corr_b_s&#45;&gt;r_hi -->
        <g id="edge3" class="edge">
            <title>c_corr_b_s:i_yg&#45;&gt;r_hi:hall_btn_entrance__bot</title>
            <path fill="none" stroke="YellowGreen" stroke-width="2" d="M470.5,-13.5C581.01,-13.5 590.99,-105.5 701.5,-105.5"/>
        </g>
        <!-- c_corr_b_s&#45;&gt;c_corr_b_s -->
        <g id="edge18" class="edge">
            <title>c_corr_b_s:i_brown&#45;&gt;c_corr_b_s:i_blue</title>
            <path fill="none" stroke="black" d="M330.18,-28.87C279.57,-27.7 229,-32.05 229,-45 229,-57.09 273.07,-61.68 320.11,-61.29"/>
            <polygon fill="black" stroke="black" points="320.24,-64.78 330.18,-61.13 320.13,-57.78 320.24,-64.78"/>
            <text text-anchor="middle" x="135.5" y="-62.8" font-family="Times,serif" font-size="14.00">Клавиша переключателя</text>
        </g>
        <!-- c_corr_b_s&#45;&gt;c_corr_b_s -->
        <g id="edge19" class="edge">
            <title>c_corr_b_s:i_brown&#45;&gt;c_corr_b_s:i_yg</title>
            <path fill="none" stroke="black" stroke-dasharray="1,5" d="M330.18,-40.13C279.57,-41.3 229,-36.95 229,-24 229,-11.91 273.07,-7.32 320.11,-7.71"/>
            <polygon fill="black" stroke="black" points="320.13,-11.22 330.18,-7.87 320.24,-4.22 320.13,-11.22"/>
        </g>
        <!-- c_corr_e_s -->
        <g id="node6" class="node">
            <title>c_corr_e_s</title>
            <polygon fill="#202020" stroke="transparent" points="330.5,-217.5 330.5,-279.5 469.5,-279.5 469.5,-217.5 330.5,-217.5"/>
            <polygon fill="none" stroke="black" points="330.5,-217.5 330.5,-279.5 469.5,-279.5 469.5,-217.5 330.5,-217.5"/>
            <text text-anchor="start" x="375" y="-266.3" font-family="Courier,monospace" font-weight="bold" font-size="14.00" fill="white">кабель</text>
            <text text-anchor="start" x="366.5" y="-252.3" font-family="Courier,monospace" font-weight="bold" font-size="14.00" fill="white">3x1.5мм2</text>
            <text text-anchor="start" x="350" y="-238.3" font-family="Courier,monospace" font-weight="bold" font-size="14.00" fill="white">выкл коридор</text>
            <text text-anchor="start" x="371" y="-224.3" font-family="Courier,monospace" font-weight="bold" font-size="14.00" fill="white">(конец)</text>
            <polygon fill="#ffffff" stroke="transparent" points="330.5,-196.5 330.5,-217.5 469.5,-217.5 469.5,-196.5 330.5,-196.5"/>
            <polygon fill="none" stroke="black" points="330.5,-196.5 330.5,-217.5 469.5,-217.5 469.5,-196.5 330.5,-196.5"/>
            <text text-anchor="start" x="333.5" y="-203.3" font-family="Courier,monospace" font-size="14.00">синий &#160;&#160;&#160;&#160;&#160;&#160;&#160;&#160;&#160;&#160;</text>
            <polygon fill="#ffffff" stroke="transparent" points="330.5,-175.5 330.5,-196.5 469.5,-196.5 469.5,-175.5 330.5,-175.5"/>
            <polygon fill="none" stroke="black" points="330.5,-175.5 330.5,-196.5 469.5,-196.5 469.5,-175.5 330.5,-175.5"/>
            <text text-anchor="start" x="333.5" y="-182.3" font-family="Courier,monospace" font-size="14.00">коричневый &#160;&#160;&#160;&#160;&#160;</text>
            <polygon fill="#ffffff" stroke="transparent" points="330.5,-154.5 330.5,-175.5 469.5,-175.5 469.5,-154.5 330.5,-154.5"/>
            <polygon fill="none" stroke="black" points="330.5,-154.5 330.5,-175.5 469.5,-175.5 469.5,-154.5 330.5,-154.5"/>
            <text text-anchor="start" x="333.5" y="-161.3" font-family="Courier,monospace" font-size="14.00">жёлто&#45;зеленый &#160;&#160;</text>
        </g>
        <!-- c_corr_e_s&#45;&gt;r_hi -->
        <g id="edge4" class="edge">
            <title>c_corr_e_s:i_brown&#45;&gt;r_hi:hall_btn_corr__top</title>
            <path fill="none" stroke="Brown" stroke-width="2" d="M470.5,-185.5C573.63,-185.5 598.37,-207.5 701.5,-207.5"/>
        </g>
        <!-- c_corr_e_s&#45;&gt;r_hi -->
        <g id="edge5" class="edge">
            <title>c_corr_e_s:i_blue&#45;&gt;r_hi:hall_btn_corr__mid</title>
            <path fill="none" stroke="Blue" stroke-width="2" d="M470.5,-206.5C573.41,-206.5 598.59,-190.5 701.5,-190.5"/>
        </g>
        <!-- c_corr_e_s&#45;&gt;r_hi -->
        <g id="edge6" class="edge">
            <title>c_corr_e_s:i_yg&#45;&gt;r_hi:hall_btn_corr__bot</title>
            <path fill="none" stroke="YellowGreen" stroke-width="2" d="M470.5,-164.5C573.24,-164.5 598.76,-173.5 701.5,-173.5"/>
        </g>
        <!-- c_corr_e_s&#45;&gt;c_corr_e_s -->
        <g id="edge20" class="edge">
            <title>c_corr_e_s:i_brown&#45;&gt;c_corr_e_s:i_blue</title>
            <path fill="none" stroke="black" d="M330.18,-179.87C279.57,-178.7 229,-183.05 229,-196 229,-208.09 273.07,-212.68 320.11,-212.29"/>
            <polygon fill="black" stroke="black" points="320.24,-215.78 330.18,-212.13 320.13,-208.78 320.24,-215.78"/>
            <text text-anchor="middle" x="135.5" y="-213.8" font-family="Times,serif" font-size="14.00">Клавиша переключателя</text>
        </g>
        <!-- c_corr_e_s&#45;&gt;c_corr_e_s -->
        <g id="edge21" class="edge">
            <title>c_corr_e_s:i_brown&#45;&gt;c_corr_e_s:i_yg</title>
            <path fill="none" stroke="black" stroke-dasharray="1,5" d="M330.18,-191.13C279.57,-192.3 229,-187.95 229,-175 229,-162.91 273.07,-158.32 320.11,-158.71"/>
            <polygon fill="black" stroke="black" points="320.13,-162.22 330.18,-158.87 320.24,-155.22 320.13,-162.22"/>
        </g>
        <!-- c_corr_b_l -->
        <g id="node7" class="node">
            <title>c_corr_b_l</title>
            <polygon fill="#202020" stroke="transparent" points="330.5,-368.5 330.5,-416.5 469.5,-416.5 469.5,-368.5 330.5,-368.5"/>
            <polygon fill="none" stroke="black" points="330.5,-368.5 330.5,-416.5 469.5,-416.5 469.5,-368.5 330.5,-368.5"/>
            <text text-anchor="start" x="375" y="-403.3" font-family="Courier,monospace" font-weight="bold" font-size="14.00" fill="white">кабель</text>
            <text text-anchor="start" x="366.5" y="-389.3" font-family="Courier,monospace" font-weight="bold" font-size="14.00" fill="white">3x1.5мм2</text>
            <text text-anchor="start" x="350" y="-375.3" font-family="Courier,monospace" font-weight="bold" font-size="14.00" fill="white">свет коридор</text>
            <polygon fill="#ffffff" stroke="transparent" points="330.5,-347.5 330.5,-368.5 469.5,-368.5 469.5,-347.5 330.5,-347.5"/>
            <polygon fill="none" stroke="black" points="330.5,-347.5 330.5,-368.5 469.5,-368.5 469.5,-347.5 330.5,-347.5"/>
            <text text-anchor="start" x="333.5" y="-354.3" font-family="Courier,monospace" font-size="14.00">синий &#160;&#160;&#160;&#160;&#160;&#160;&#160;&#160;&#160;&#160;</text>
            <polygon fill="#ffffff" stroke="transparent" points="330.5,-326.5 330.5,-347.5 469.5,-347.5 469.5,-326.5 330.5,-326.5"/>
            <polygon fill="none" stroke="black" points="330.5,-326.5 330.5,-347.5 469.5,-347.5 469.5,-326.5 330.5,-326.5"/>
            <text text-anchor="start" x="333.5" y="-333.3" font-family="Courier,monospace" font-size="14.00">коричневый &#160;&#160;&#160;&#160;&#160;</text>
            <polygon fill="#ffffff" stroke="transparent" points="330.5,-305.5 330.5,-326.5 469.5,-326.5 469.5,-305.5 330.5,-305.5"/>
            <polygon fill="none" stroke="black" points="330.5,-305.5 330.5,-326.5 469.5,-326.5 469.5,-305.5 330.5,-305.5"/>
            <text text-anchor="start" x="333.5" y="-312.3" font-family="Courier,monospace" font-size="14.00">жёлто&#45;зеленый &#160;&#160;</text>
        </g>
        <!-- c_corr_b_l&#45;&gt;PE -->
        <g id="edge9" class="edge">
            <title>c_corr_b_l:i_yg&#45;&gt;PE</title>
            <path fill="none" stroke="YellowGreen" stroke-width="2" d="M470.5,-315.5C611.88,-315.5 563.25,-151.66 686,-81.5 712.47,-66.37 747.45,-60.76 771.11,-58.69"/>
        </g>
        <!-- c_corr_b_l&#45;&gt;r_hi -->
        <g id="edge7" class="edge">
            <title>c_corr_b_l:i_blue&#45;&gt;r_hi:l_hall__top</title>
            <path fill="none" stroke="Blue" stroke-width="2" d="M470.5,-357.5C574.41,-357.5 597.59,-321.5 701.5,-321.5"/>
        </g>
        <!-- c_corr_b_l&#45;&gt;r_hi -->
        <g id="edge8" class="edge">
            <title>c_corr_b_l:i_brown&#45;&gt;r_hi:l_hall__mid</title>
            <path fill="none" stroke="Brown" stroke-width="2" d="M470.5,-336.5C574.15,-336.5 597.85,-304.5 701.5,-304.5"/>
        </g>
        <!-- LIGHTS1 -->
        <g id="node8" class="node">
            <title>LIGHTS1</title>
            <polygon fill="#ffd700" stroke="transparent" points="8.5,-389.5 8.5,-410.5 97.5,-410.5 97.5,-389.5 8.5,-389.5"/>
            <polygon fill="none" stroke="black" points="8.5,-389.5 8.5,-410.5 97.5,-410.5 97.5,-389.5 8.5,-389.5"/>
            <text text-anchor="start" x="11.5" y="-396.3" font-family="Courier,monospace" font-size="14.00">Светильник</text>
            <polygon fill="none" stroke="black" points="8.5,-368.5 8.5,-389.5 97.5,-389.5 97.5,-368.5 8.5,-368.5"/>
            <text text-anchor="start" x="11.5" y="-375.3" font-family="Courier,monospace" font-size="14.00">PE</text>
            <polygon fill="none" stroke="black" points="8.5,-347.5 8.5,-368.5 97.5,-368.5 97.5,-347.5 8.5,-347.5"/>
            <text text-anchor="start" x="11.5" y="-354.3" font-family="Courier,monospace" font-size="14.00">N</text>
            <polygon fill="none" stroke="black" points="8.5,-326.5 8.5,-347.5 97.5,-347.5 97.5,-326.5 8.5,-326.5"/>
            <text text-anchor="start" x="11.5" y="-333.3" font-family="Courier,monospace" font-size="14.00">L</text>
        </g>
        <!-- LIGHTS1&#45;&gt;c_corr_b_l -->
        <g id="edge12" class="edge">
            <title>LIGHTS1:l&#45;&gt;c_corr_b_l:i_brown</title>
            <path fill="none" stroke="Brown" stroke-width="2" d="M98.5,-336.5C201.17,-336.5 226.83,-336.5 329.5,-336.5"/>
        </g>
        <!-- LIGHTS1&#45;&gt;c_corr_b_l -->
        <g id="edge13" class="edge">
            <title>LIGHTS1:n&#45;&gt;c_corr_b_l:i_blue</title>
            <path fill="none" stroke="Blue" stroke-width="2" d="M98.5,-357.5C201.17,-357.5 226.83,-357.5 329.5,-357.5"/>
        </g>
        <!-- LIGHTS1&#45;&gt;c_corr_b_l -->
        <g id="edge14" class="edge">
            <title>LIGHTS1:pe&#45;&gt;c_corr_b_l:i_yg</title>
            <path fill="none" stroke="YellowGreen" stroke-width="2" d="M98.5,-379.5C150.07,-379.5 164.2,-381.89 214,-368.5 268.54,-353.84 273.02,-315.5 329.5,-315.5"/>
        </g>
    </g>
</svg>
