<?xml version="1.0" encoding="UTF-8" standalone="no"?>
<!DOCTYPE svg PUBLIC "-//W3C//DTD SVG 1.1//EN"
 "http://www.w3.org/Graphics/SVG/1.1/DTD/svg11.dtd">
<!-- Generated by graphviz version 2.43.0 (0)
 -->
<!-- Title: box Pages: 1 -->
<svg width="373pt" height="1294pt"
 viewBox="0.00 0.00 373.00 1294.00" xmlns="http://www.w3.org/2000/svg" xmlns:xlink="http://www.w3.org/1999/xlink">
<g id="graph0" class="graph" transform="scale(1 1) rotate(0) translate(4 1290)">
<title>box</title>
<polygon fill="white" stroke="transparent" points="-4,4 -4,-1290 369,-1290 369,4 -4,4"/>
<text text-anchor="middle" x="182.5" y="-1259.6" font-family="Helvetica,sans-Serif" font-size="28.00">Клеммы</text>
<g id="clust1" class="cluster">
<title>cluster_r1</title>
</g>
<!-- r1 -->
<g id="node1" class="node">
<title>r1</title>
<text text-anchor="start" x="96" y="-1175.8" font-family="Courier,monospace" font-size="14.00">Клеммники 1&#45;уровневые</text>
<polygon fill="#e0e0e0" stroke="transparent" points="24.5,-1152 24.5,-1172 341.5,-1172 341.5,-1152 24.5,-1152"/>
<polygon fill="none" stroke="black" points="24.5,-1152 24.5,-1172 341.5,-1172 341.5,-1152 24.5,-1152"/>
<text text-anchor="start" x="25.5" y="-1159.2" font-family="Courier,monospace" font-weight="bold" font-size="14.00" fill="darkblue">X01</text>
<text text-anchor="start" x="50.5" y="-1159.2" font-family="Courier,monospace" font-weight="bold" font-size="14.00">| </text>
<text text-anchor="start" x="67.5" y="-1159.2" font-family="Courier,monospace" font-size="16.00"> водонагреватель L</text>
<text text-anchor="start" x="243.5" y="-1159.2" font-family="Courier,monospace" font-size="14.00"> </text>
<polygon fill="#c0c0e0" stroke="transparent" points="24.5,-1132 24.5,-1152 341.5,-1152 341.5,-1132 24.5,-1132"/>
<polygon fill="none" stroke="black" points="24.5,-1132 24.5,-1152 341.5,-1152 341.5,-1132 24.5,-1132"/>
<text text-anchor="start" x="25.5" y="-1139.2" font-family="Courier,monospace" font-weight="bold" font-size="14.00" fill="darkblue">X02</text>
<text text-anchor="start" x="50.5" y="-1139.2" font-family="Courier,monospace" font-weight="bold" font-size="14.00">| </text>
<text text-anchor="start" x="67.5" y="-1139.2" font-family="Courier,monospace" font-size="16.00"> водонагреватель N</text>
<text text-anchor="start" x="243.5" y="-1139.2" font-family="Courier,monospace" font-size="14.00"> </text>
<polygon fill="#e0e0e0" stroke="transparent" points="24.5,-1112 24.5,-1132 341.5,-1132 341.5,-1112 24.5,-1112"/>
<polygon fill="none" stroke="black" points="24.5,-1112 24.5,-1132 341.5,-1132 341.5,-1112 24.5,-1112"/>
<text text-anchor="start" x="25.5" y="-1119.2" font-family="Courier,monospace" font-weight="bold" font-size="14.00" fill="darkblue">X03</text>
<text text-anchor="start" x="50.5" y="-1119.2" font-family="Courier,monospace" font-weight="bold" font-size="14.00">| </text>
<text text-anchor="start" x="67.5" y="-1119.2" font-family="Courier,monospace" font-size="16.00"> варочная L</text>
<text text-anchor="start" x="175.5" y="-1119.2" font-family="Courier,monospace" font-size="14.00"> </text>
<polygon fill="#c0c0e0" stroke="transparent" points="24.5,-1092 24.5,-1112 341.5,-1112 341.5,-1092 24.5,-1092"/>
<polygon fill="none" stroke="black" points="24.5,-1092 24.5,-1112 341.5,-1112 341.5,-1092 24.5,-1092"/>
<text text-anchor="start" x="25.5" y="-1099.2" font-family="Courier,monospace" font-weight="bold" font-size="14.00" fill="darkblue">X04</text>
<text text-anchor="start" x="50.5" y="-1099.2" font-family="Courier,monospace" font-weight="bold" font-size="14.00">| </text>
<text text-anchor="start" x="67.5" y="-1099.2" font-family="Courier,monospace" font-size="16.00"> варочная N</text>
<text text-anchor="start" x="175.5" y="-1099.2" font-family="Courier,monospace" font-size="14.00"> </text>
<text text-anchor="start" x="96" y="-1080.8" font-family="Courier,monospace" font-size="14.00">Клеммники 2&#45;уровневые</text>
<text text-anchor="start" x="112.5" y="-1065.8" font-family="Courier,monospace" font-size="14.00">Розетки и техника</text>
<polygon fill="wheat" stroke="transparent" points="24.5,-1045 24.5,-1062 341.5,-1062 341.5,-1045 24.5,-1045"/>
<polygon fill="none" stroke="black" points="24.5,-1045 24.5,-1062 341.5,-1062 341.5,-1045 24.5,-1045"/>
<text text-anchor="start" x="25.5" y="-1050.8" font-family="Courier,monospace" font-weight="bold" font-size="14.00" fill="darkblue">X05</text>
<text text-anchor="start" x="50.5" y="-1050.8" font-family="Courier,monospace" font-weight="bold" font-size="14.00">| </text>
<text text-anchor="start" x="67.5" y="-1050.8" font-family="Courier,monospace" font-size="14.00">роз гостиная </text>
<polygon fill="wheat" stroke="transparent" points="24.5,-1028 24.5,-1045 341.5,-1045 341.5,-1028 24.5,-1028"/>
<polygon fill="none" stroke="black" points="24.5,-1028 24.5,-1045 341.5,-1045 341.5,-1028 24.5,-1028"/>
<text text-anchor="start" x="25.5" y="-1033.8" font-family="Courier,monospace" font-weight="bold" font-size="14.00" fill="darkblue">X06</text>
<text text-anchor="start" x="50.5" y="-1033.8" font-family="Courier,monospace" font-weight="bold" font-size="14.00">| </text>
<text text-anchor="start" x="67.5" y="-1033.8" font-family="Courier,monospace" font-size="14.00">кондиционер </text>
<polygon fill="wheat" stroke="transparent" points="24.5,-1011 24.5,-1028 341.5,-1028 341.5,-1011 24.5,-1011"/>
<polygon fill="none" stroke="black" points="24.5,-1011 24.5,-1028 341.5,-1028 341.5,-1011 24.5,-1011"/>
<text text-anchor="start" x="25.5" y="-1016.8" font-family="Courier,monospace" font-weight="bold" font-size="14.00" fill="darkblue">X07</text>
<text text-anchor="start" x="50.5" y="-1016.8" font-family="Courier,monospace" font-weight="bold" font-size="14.00">| </text>
<text text-anchor="start" x="67.5" y="-1016.8" font-family="Courier,monospace" font-size="14.00">роз лоджия </text>
<polygon fill="wheat" stroke="transparent" points="24.5,-994 24.5,-1011 341.5,-1011 341.5,-994 24.5,-994"/>
<polygon fill="none" stroke="black" points="24.5,-994 24.5,-1011 341.5,-1011 341.5,-994 24.5,-994"/>
<text text-anchor="start" x="25.5" y="-999.8" font-family="Courier,monospace" font-weight="bold" font-size="14.00" fill="darkblue">X08</text>
<text text-anchor="start" x="50.5" y="-999.8" font-family="Courier,monospace" font-weight="bold" font-size="14.00">| </text>
<text text-anchor="start" x="67.5" y="-999.8" font-family="Courier,monospace" font-size="14.00">вентиляция </text>
<polygon fill="wheat" stroke="transparent" points="24.5,-977 24.5,-994 341.5,-994 341.5,-977 24.5,-977"/>
<polygon fill="none" stroke="black" points="24.5,-977 24.5,-994 341.5,-994 341.5,-977 24.5,-977"/>
<text text-anchor="start" x="25.5" y="-982.8" font-family="Courier,monospace" font-weight="bold" font-size="14.00" fill="darkblue">X09</text>
<text text-anchor="start" x="50.5" y="-982.8" font-family="Courier,monospace" font-weight="bold" font-size="14.00">| </text>
<text text-anchor="start" x="67.5" y="-982.8" font-family="Courier,monospace" font-size="14.00">духовка </text>
<polygon fill="wheat" stroke="transparent" points="24.5,-960 24.5,-977 341.5,-977 341.5,-960 24.5,-960"/>
<polygon fill="none" stroke="black" points="24.5,-960 24.5,-977 341.5,-977 341.5,-960 24.5,-960"/>
<text text-anchor="start" x="25.5" y="-965.8" font-family="Courier,monospace" font-weight="bold" font-size="14.00" fill="darkblue">X10</text>
<text text-anchor="start" x="50.5" y="-965.8" font-family="Courier,monospace" font-weight="bold" font-size="14.00">| </text>
<text text-anchor="start" x="67.5" y="-965.8" font-family="Courier,monospace" font-size="14.00">роз посудомойка </text>
<polygon fill="wheat" stroke="transparent" points="24.5,-943 24.5,-960 341.5,-960 341.5,-943 24.5,-943"/>
<polygon fill="none" stroke="black" points="24.5,-943 24.5,-960 341.5,-960 341.5,-943 24.5,-943"/>
<text text-anchor="start" x="25.5" y="-948.8" font-family="Courier,monospace" font-weight="bold" font-size="14.00" fill="darkblue">X11</text>
<text text-anchor="start" x="50.5" y="-948.8" font-family="Courier,monospace" font-weight="bold" font-size="14.00">| </text>
<text text-anchor="start" x="67.5" y="-948.8" font-family="Courier,monospace" font-size="14.00">роз кухня + прихожая </text>
<polygon fill="wheat" stroke="transparent" points="24.5,-926 24.5,-943 341.5,-943 341.5,-926 24.5,-926"/>
<polygon fill="none" stroke="black" points="24.5,-926 24.5,-943 341.5,-943 341.5,-926 24.5,-926"/>
<text text-anchor="start" x="25.5" y="-931.8" font-family="Courier,monospace" font-weight="bold" font-size="14.00" fill="darkblue">X12</text>
<text text-anchor="start" x="50.5" y="-931.8" font-family="Courier,monospace" font-weight="bold" font-size="14.00">| </text>
<text text-anchor="start" x="67.5" y="-931.8" font-family="Courier,monospace" font-size="14.00">роз холодильник </text>
<polygon fill="wheat" stroke="transparent" points="24.5,-909 24.5,-926 341.5,-926 341.5,-909 24.5,-909"/>
<polygon fill="none" stroke="black" points="24.5,-909 24.5,-926 341.5,-926 341.5,-909 24.5,-909"/>
<text text-anchor="start" x="25.5" y="-914.8" font-family="Courier,monospace" font-weight="bold" font-size="14.00" fill="darkblue">X13</text>
<text text-anchor="start" x="50.5" y="-914.8" font-family="Courier,monospace" font-weight="bold" font-size="14.00">| </text>
<text text-anchor="start" x="67.5" y="-914.8" font-family="Courier,monospace" font-size="14.00">роз стиральная </text>
<polygon fill="wheat" stroke="transparent" points="24.5,-892 24.5,-909 341.5,-909 341.5,-892 24.5,-892"/>
<polygon fill="none" stroke="black" points="24.5,-892 24.5,-909 341.5,-909 341.5,-892 24.5,-892"/>
<text text-anchor="start" x="25.5" y="-897.8" font-family="Courier,monospace" font-weight="bold" font-size="14.00" fill="darkblue">X14</text>
<text text-anchor="start" x="50.5" y="-897.8" font-family="Courier,monospace" font-weight="bold" font-size="14.00">| </text>
<text text-anchor="start" x="67.5" y="-897.8" font-family="Courier,monospace" font-size="14.00">роз ванная </text>
<text text-anchor="start" x="96" y="-880.8" font-family="Courier,monospace" font-size="14.00">Клеммники 3&#45;уровневые</text>
<text text-anchor="start" x="145.5" y="-865.8" font-family="Courier,monospace" font-size="14.00">Освещение</text>
<polygon fill="#e0e0e0" stroke="transparent" points="24.5,-845 24.5,-862 341.5,-862 341.5,-845 24.5,-845"/>
<polygon fill="none" stroke="black" points="24.5,-845 24.5,-862 341.5,-862 341.5,-845 24.5,-845"/>
<text text-anchor="start" x="25.5" y="-850.8" font-family="Courier,monospace" font-weight="bold" font-size="14.00" fill="darkblue">X21</text>
<text text-anchor="start" x="50.5" y="-850.8" font-family="Courier,monospace" font-weight="bold" font-size="14.00">| </text>
<text text-anchor="start" x="67.5" y="-850.8" font-family="Courier,monospace" font-size="14.00">свет гостиная лев </text>
<polygon fill="#e0e0e0" stroke="transparent" points="24.5,-828 24.5,-845 341.5,-845 341.5,-828 24.5,-828"/>
<polygon fill="none" stroke="black" points="24.5,-828 24.5,-845 341.5,-845 341.5,-828 24.5,-828"/>
<text text-anchor="start" x="25.5" y="-833.8" font-family="Courier,monospace" font-weight="bold" font-size="14.00" fill="darkblue">X22</text>
<text text-anchor="start" x="50.5" y="-833.8" font-family="Courier,monospace" font-weight="bold" font-size="14.00">| </text>
<text text-anchor="start" x="67.5" y="-833.8" font-family="Courier,monospace" font-size="14.00">свет гостиная пра </text>
<polygon fill="#e0e0e0" stroke="transparent" points="24.5,-811 24.5,-828 341.5,-828 341.5,-811 24.5,-811"/>
<polygon fill="none" stroke="black" points="24.5,-811 24.5,-828 341.5,-828 341.5,-811 24.5,-811"/>
<text text-anchor="start" x="25.5" y="-816.8" font-family="Courier,monospace" font-weight="bold" font-size="14.00" fill="darkblue">X23</text>
<text text-anchor="start" x="50.5" y="-816.8" font-family="Courier,monospace" font-weight="bold" font-size="14.00">| </text>
<text text-anchor="start" x="67.5" y="-816.8" font-family="Courier,monospace" font-size="14.00">свет гостиная цен </text>
<polygon fill="#e0e0e0" stroke="transparent" points="24.5,-794 24.5,-811 341.5,-811 341.5,-794 24.5,-794"/>
<polygon fill="none" stroke="black" points="24.5,-794 24.5,-811 341.5,-811 341.5,-794 24.5,-794"/>
<text text-anchor="start" x="25.5" y="-799.8" font-family="Courier,monospace" font-weight="bold" font-size="14.00" fill="darkblue">X24</text>
<text text-anchor="start" x="50.5" y="-799.8" font-family="Courier,monospace" font-weight="bold" font-size="14.00">| </text>
<text text-anchor="start" x="67.5" y="-799.8" font-family="Courier,monospace" font-size="14.00">свет гостиная бра подвес </text>
<polygon fill="#e0e0e0" stroke="transparent" points="24.5,-777 24.5,-794 341.5,-794 341.5,-777 24.5,-777"/>
<polygon fill="none" stroke="black" points="24.5,-777 24.5,-794 341.5,-794 341.5,-777 24.5,-777"/>
<text text-anchor="start" x="25.5" y="-782.8" font-family="Courier,monospace" font-weight="bold" font-size="14.00" fill="darkblue">X25</text>
<text text-anchor="start" x="50.5" y="-782.8" font-family="Courier,monospace" font-weight="bold" font-size="14.00">| </text>
<text text-anchor="start" x="67.5" y="-782.8" font-family="Courier,monospace" font-size="14.00">свет гостиная бра лев </text>
<polygon fill="#e0e0e0" stroke="transparent" points="24.5,-760 24.5,-777 341.5,-777 341.5,-760 24.5,-760"/>
<polygon fill="none" stroke="black" points="24.5,-760 24.5,-777 341.5,-777 341.5,-760 24.5,-760"/>
<text text-anchor="start" x="25.5" y="-765.8" font-family="Courier,monospace" font-weight="bold" font-size="14.00" fill="darkblue">X26</text>
<text text-anchor="start" x="50.5" y="-765.8" font-family="Courier,monospace" font-weight="bold" font-size="14.00">| </text>
<text text-anchor="start" x="67.5" y="-765.8" font-family="Courier,monospace" font-size="14.00">свет гостиная бра пра &#160;</text>
<polygon fill="#e0e0e0" stroke="transparent" points="24.5,-743 24.5,-760 341.5,-760 341.5,-743 24.5,-743"/>
<polygon fill="none" stroke="black" points="24.5,-743 24.5,-760 341.5,-760 341.5,-743 24.5,-743"/>
<text text-anchor="start" x="25.5" y="-748.8" font-family="Courier,monospace" font-weight="bold" font-size="14.00" fill="darkblue">X27</text>
<text text-anchor="start" x="50.5" y="-748.8" font-family="Courier,monospace" font-weight="bold" font-size="14.00">| </text>
<text text-anchor="start" x="67.5" y="-748.8" font-family="Courier,monospace" font-size="14.00">свет гостиная лента у окна </text>
<polygon fill="#e0e0e0" stroke="transparent" points="24.5,-726 24.5,-743 341.5,-743 341.5,-726 24.5,-726"/>
<polygon fill="none" stroke="black" points="24.5,-726 24.5,-743 341.5,-743 341.5,-726 24.5,-726"/>
<text text-anchor="start" x="25.5" y="-731.8" font-family="Courier,monospace" font-weight="bold" font-size="14.00" fill="darkblue">X28</text>
<text text-anchor="start" x="50.5" y="-731.8" font-family="Courier,monospace" font-weight="bold" font-size="14.00">| </text>
<text text-anchor="start" x="67.5" y="-731.8" font-family="Courier,monospace" font-size="14.00">свет гостиная лента над кроватью </text>
<polygon fill="#e0e0e0" stroke="transparent" points="24.5,-709 24.5,-726 341.5,-726 341.5,-709 24.5,-709"/>
<polygon fill="none" stroke="black" points="24.5,-709 24.5,-726 341.5,-726 341.5,-709 24.5,-709"/>
<text text-anchor="start" x="25.5" y="-714.8" font-family="Courier,monospace" font-weight="bold" font-size="14.00" fill="darkblue">X29</text>
<text text-anchor="start" x="50.5" y="-714.8" font-family="Courier,monospace" font-weight="bold" font-size="14.00">| </text>
<text text-anchor="start" x="67.5" y="-714.8" font-family="Courier,monospace" font-size="14.00">свет лоджия </text>
<polygon fill="#e0e0e0" stroke="transparent" points="24.5,-692 24.5,-709 341.5,-709 341.5,-692 24.5,-692"/>
<polygon fill="none" stroke="black" points="24.5,-692 24.5,-709 341.5,-709 341.5,-692 24.5,-692"/>
<text text-anchor="start" x="25.5" y="-697.8" font-family="Courier,monospace" font-weight="bold" font-size="14.00" fill="darkblue">X30</text>
<text text-anchor="start" x="50.5" y="-697.8" font-family="Courier,monospace" font-weight="bold" font-size="14.00">| </text>
<text text-anchor="start" x="67.5" y="-697.8" font-family="Courier,monospace" font-size="14.00">свет прихожая </text>
<polygon fill="#e0e0e0" stroke="transparent" points="24.5,-675 24.5,-692 341.5,-692 341.5,-675 24.5,-675"/>
<polygon fill="none" stroke="black" points="24.5,-675 24.5,-692 341.5,-692 341.5,-675 24.5,-675"/>
<text text-anchor="start" x="25.5" y="-680.8" font-family="Courier,monospace" font-weight="bold" font-size="14.00" fill="darkblue">X31</text>
<text text-anchor="start" x="50.5" y="-680.8" font-family="Courier,monospace" font-weight="bold" font-size="14.00">| </text>
<text text-anchor="start" x="67.5" y="-680.8" font-family="Courier,monospace" font-size="14.00">свет ванная + вент </text>
<polygon fill="#e0e0e0" stroke="transparent" points="24.5,-658 24.5,-675 341.5,-675 341.5,-658 24.5,-658"/>
<polygon fill="none" stroke="black" points="24.5,-658 24.5,-675 341.5,-675 341.5,-658 24.5,-658"/>
<text text-anchor="start" x="25.5" y="-663.8" font-family="Courier,monospace" font-weight="bold" font-size="14.00" fill="darkblue">X32</text>
<text text-anchor="start" x="50.5" y="-663.8" font-family="Courier,monospace" font-weight="bold" font-size="14.00">| </text>
<text text-anchor="start" x="67.5" y="-663.8" font-family="Courier,monospace" font-size="14.00">свет ванная подс </text>
<polygon fill="#e0e0e0" stroke="transparent" points="24.5,-641 24.5,-658 341.5,-658 341.5,-641 24.5,-641"/>
<polygon fill="none" stroke="black" points="24.5,-641 24.5,-658 341.5,-658 341.5,-641 24.5,-641"/>
<text text-anchor="start" x="25.5" y="-646.8" font-family="Courier,monospace" font-weight="bold" font-size="14.00" fill="darkblue">X33</text>
<text text-anchor="start" x="50.5" y="-646.8" font-family="Courier,monospace" font-weight="bold" font-size="14.00">| </text>
<text text-anchor="start" x="67.5" y="-646.8" font-family="Courier,monospace" font-size="14.00">свет ванная подс тумбы </text>
<polygon fill="#e0e0e0" stroke="transparent" points="24.5,-624 24.5,-641 341.5,-641 341.5,-624 24.5,-624"/>
<polygon fill="none" stroke="black" points="24.5,-624 24.5,-641 341.5,-641 341.5,-624 24.5,-624"/>
<text text-anchor="start" x="25.5" y="-629.8" font-family="Courier,monospace" font-weight="bold" font-size="14.00" fill="darkblue">X34</text>
<text text-anchor="start" x="50.5" y="-629.8" font-family="Courier,monospace" font-weight="bold" font-size="14.00">| </text>
<text text-anchor="start" x="67.5" y="-629.8" font-family="Courier,monospace" font-size="14.00">свет кухня </text>
<polygon fill="#e0e0e0" stroke="transparent" points="24.5,-607 24.5,-624 341.5,-624 341.5,-607 24.5,-607"/>
<polygon fill="none" stroke="black" points="24.5,-607 24.5,-624 341.5,-624 341.5,-607 24.5,-607"/>
<text text-anchor="start" x="25.5" y="-612.8" font-family="Courier,monospace" font-weight="bold" font-size="14.00" fill="darkblue">X35</text>
<text text-anchor="start" x="50.5" y="-612.8" font-family="Courier,monospace" font-weight="bold" font-size="14.00">| </text>
<text text-anchor="start" x="67.5" y="-612.8" font-family="Courier,monospace" font-size="14.00">свет кухня стол </text>
<polygon fill="#e0e0e0" stroke="transparent" points="24.5,-590 24.5,-607 341.5,-607 341.5,-590 24.5,-590"/>
<polygon fill="none" stroke="black" points="24.5,-590 24.5,-607 341.5,-607 341.5,-590 24.5,-590"/>
<text text-anchor="start" x="25.5" y="-595.8" font-family="Courier,monospace" font-weight="bold" font-size="14.00" fill="darkblue">X36</text>
<text text-anchor="start" x="50.5" y="-595.8" font-family="Courier,monospace" font-weight="bold" font-size="14.00">| </text>
<text text-anchor="start" x="67.5" y="-595.8" font-family="Courier,monospace" font-size="14.00">свет кухня вытяжка+подс </text>
<polygon fill="#e0e0e0" stroke="transparent" points="24.5,-573 24.5,-590 341.5,-590 341.5,-573 24.5,-573"/>
<polygon fill="none" stroke="black" points="24.5,-573 24.5,-590 341.5,-590 341.5,-573 24.5,-573"/>
<text text-anchor="start" x="25.5" y="-578.8" font-family="Courier,monospace" font-weight="bold" font-size="14.00" fill="darkblue">X37</text>
<text text-anchor="start" x="50.5" y="-578.8" font-family="Courier,monospace" font-weight="bold" font-size="14.00">| </text>
<text text-anchor="start" x="67.5" y="-578.8" font-family="Courier,monospace" font-size="14.00">вентилятор ванная </text>
<polygon fill="#e0e0e0" stroke="transparent" points="24.5,-556 24.5,-573 341.5,-573 341.5,-556 24.5,-556"/>
<polygon fill="none" stroke="black" points="24.5,-556 24.5,-573 341.5,-573 341.5,-556 24.5,-556"/>
<text text-anchor="start" x="25.5" y="-561.8" font-family="Courier,monospace" font-weight="bold" font-size="14.00" fill="darkblue">X38</text>
<text text-anchor="start" x="50.5" y="-561.8" font-family="Courier,monospace" font-weight="bold" font-size="14.00">| </text>
<text text-anchor="start" x="67.5" y="-561.8" font-family="Courier,monospace" font-size="14.00">вентилятор кухня </text>
<text text-anchor="start" x="96" y="-544.8" font-family="Courier,monospace" font-size="14.00">Клеммники 3&#45;уровневые</text>
<text text-anchor="start" x="137.5" y="-529.8" font-family="Courier,monospace" font-size="14.00">Выключатели</text>
<polygon fill="#e0e0e0" stroke="transparent" points="24.5,-509 24.5,-526 341.5,-526 341.5,-509 24.5,-509"/>
<polygon fill="none" stroke="black" points="24.5,-509 24.5,-526 341.5,-526 341.5,-509 24.5,-509"/>
<text text-anchor="start" x="25.5" y="-514.8" font-family="Courier,monospace" font-weight="bold" font-size="14.00" fill="darkblue">X41</text>
<text text-anchor="start" x="50.5" y="-514.8" font-family="Courier,monospace" font-weight="bold" font-size="14.00">| </text>
<text text-anchor="start" x="67.5" y="-514.8" font-family="Courier,monospace" font-size="14.00">выкл прихожая &#160;</text>
<polygon fill="#e0e0e0" stroke="transparent" points="24.5,-492 24.5,-509 341.5,-509 341.5,-492 24.5,-492"/>
<polygon fill="none" stroke="black" points="24.5,-492 24.5,-509 341.5,-509 341.5,-492 24.5,-492"/>
<text text-anchor="start" x="25.5" y="-497.8" font-family="Courier,monospace" font-weight="bold" font-size="14.00" fill="darkblue">X42</text>
<text text-anchor="start" x="50.5" y="-497.8" font-family="Courier,monospace" font-weight="bold" font-size="14.00">| </text>
<text text-anchor="start" x="67.5" y="-497.8" font-family="Courier,monospace" font-size="14.00">выкл прихожая вх дверь &#160;</text>
<polygon fill="#e0e0e0" stroke="transparent" points="24.5,-475 24.5,-492 341.5,-492 341.5,-475 24.5,-475"/>
<polygon fill="none" stroke="black" points="24.5,-475 24.5,-492 341.5,-492 341.5,-475 24.5,-475"/>
<text text-anchor="start" x="25.5" y="-480.8" font-family="Courier,monospace" font-weight="bold" font-size="14.00" fill="darkblue">X43</text>
<text text-anchor="start" x="50.5" y="-480.8" font-family="Courier,monospace" font-weight="bold" font-size="14.00">| </text>
<text text-anchor="start" x="67.5" y="-480.8" font-family="Courier,monospace" font-size="14.00">выкл гостиная лев (гр. 1+2) </text>
<polygon fill="#e0e0e0" stroke="transparent" points="24.5,-458 24.5,-475 341.5,-475 341.5,-458 24.5,-458"/>
<polygon fill="none" stroke="black" points="24.5,-458 24.5,-475 341.5,-475 341.5,-458 24.5,-458"/>
<text text-anchor="start" x="25.5" y="-463.8" font-family="Courier,monospace" font-weight="bold" font-size="14.00" fill="darkblue">X44</text>
<text text-anchor="start" x="50.5" y="-463.8" font-family="Courier,monospace" font-weight="bold" font-size="14.00">| </text>
<text text-anchor="start" x="67.5" y="-463.8" font-family="Courier,monospace" font-size="14.00">выкл гостиная цен (гр. 3+4) </text>
<polygon fill="#e0e0e0" stroke="transparent" points="24.5,-441 24.5,-458 341.5,-458 341.5,-441 24.5,-441"/>
<polygon fill="none" stroke="black" points="24.5,-441 24.5,-458 341.5,-458 341.5,-441 24.5,-441"/>
<text text-anchor="start" x="25.5" y="-446.8" font-family="Courier,monospace" font-weight="bold" font-size="14.00" fill="darkblue">X45</text>
<text text-anchor="start" x="50.5" y="-446.8" font-family="Courier,monospace" font-weight="bold" font-size="14.00">| </text>
<text text-anchor="start" x="67.5" y="-446.8" font-family="Courier,monospace" font-size="14.00">выкл гостиная пра (гр. 5+6) </text>
<polygon fill="#e0e0e0" stroke="transparent" points="24.5,-424 24.5,-441 341.5,-441 341.5,-424 24.5,-424"/>
<polygon fill="none" stroke="black" points="24.5,-424 24.5,-441 341.5,-441 341.5,-424 24.5,-424"/>
<text text-anchor="start" x="25.5" y="-429.8" font-family="Courier,monospace" font-weight="bold" font-size="14.00" fill="darkblue">X46</text>
<text text-anchor="start" x="50.5" y="-429.8" font-family="Courier,monospace" font-weight="bold" font-size="14.00">| </text>
<text text-anchor="start" x="67.5" y="-429.8" font-family="Courier,monospace" font-size="14.00">выкл гостиная бра лев </text>
<polygon fill="#e0e0e0" stroke="transparent" points="24.5,-407 24.5,-424 341.5,-424 341.5,-407 24.5,-407"/>
<polygon fill="none" stroke="black" points="24.5,-407 24.5,-424 341.5,-424 341.5,-407 24.5,-407"/>
<text text-anchor="start" x="25.5" y="-412.8" font-family="Courier,monospace" font-weight="bold" font-size="14.00" fill="darkblue">X47</text>
<text text-anchor="start" x="50.5" y="-412.8" font-family="Courier,monospace" font-weight="bold" font-size="14.00">| </text>
<text text-anchor="start" x="67.5" y="-412.8" font-family="Courier,monospace" font-size="14.00">выкл гостиная бра пра </text>
<polygon fill="#e0e0e0" stroke="transparent" points="24.5,-390 24.5,-407 341.5,-407 341.5,-390 24.5,-390"/>
<polygon fill="none" stroke="black" points="24.5,-390 24.5,-407 341.5,-407 341.5,-390 24.5,-390"/>
<text text-anchor="start" x="25.5" y="-395.8" font-family="Courier,monospace" font-weight="bold" font-size="14.00" fill="darkblue">X48</text>
<text text-anchor="start" x="50.5" y="-395.8" font-family="Courier,monospace" font-weight="bold" font-size="14.00">| </text>
<text text-anchor="start" x="67.5" y="-395.8" font-family="Courier,monospace" font-size="14.00">выкл лоджия </text>
<polygon fill="#e0e0e0" stroke="transparent" points="24.5,-373 24.5,-390 341.5,-390 341.5,-373 24.5,-373"/>
<polygon fill="none" stroke="black" points="24.5,-373 24.5,-390 341.5,-390 341.5,-373 24.5,-373"/>
<text text-anchor="start" x="25.5" y="-378.8" font-family="Courier,monospace" font-weight="bold" font-size="14.00" fill="darkblue">X49</text>
<text text-anchor="start" x="50.5" y="-378.8" font-family="Courier,monospace" font-weight="bold" font-size="14.00">| </text>
<text text-anchor="start" x="67.5" y="-378.8" font-family="Courier,monospace" font-size="14.00">выкл кухня </text>
<polygon fill="#e0e0e0" stroke="transparent" points="24.5,-356 24.5,-373 341.5,-373 341.5,-356 24.5,-356"/>
<polygon fill="none" stroke="black" points="24.5,-356 24.5,-373 341.5,-373 341.5,-356 24.5,-356"/>
<text text-anchor="start" x="25.5" y="-361.8" font-family="Courier,monospace" font-weight="bold" font-size="14.00" fill="darkblue">X50</text>
<text text-anchor="start" x="50.5" y="-361.8" font-family="Courier,monospace" font-weight="bold" font-size="14.00">| </text>
<text text-anchor="start" x="67.5" y="-361.8" font-family="Courier,monospace" font-size="14.00">выкл кухня фартук (подсветка) </text>
<polygon fill="#e0e0e0" stroke="transparent" points="24.5,-339 24.5,-356 341.5,-356 341.5,-339 24.5,-339"/>
<polygon fill="none" stroke="black" points="24.5,-339 24.5,-356 341.5,-356 341.5,-339 24.5,-339"/>
<text text-anchor="start" x="25.5" y="-344.8" font-family="Courier,monospace" font-weight="bold" font-size="14.00" fill="darkblue">X51</text>
<text text-anchor="start" x="50.5" y="-344.8" font-family="Courier,monospace" font-weight="bold" font-size="14.00">| </text>
<text text-anchor="start" x="67.5" y="-344.8" font-family="Courier,monospace" font-size="14.00">выкл ванная гр. 1+2 </text>
<polygon fill="#e0e0e0" stroke="transparent" points="24.5,-322 24.5,-339 341.5,-339 341.5,-322 24.5,-322"/>
<polygon fill="none" stroke="black" points="24.5,-322 24.5,-339 341.5,-339 341.5,-322 24.5,-322"/>
<text text-anchor="start" x="25.5" y="-327.8" font-family="Courier,monospace" font-weight="bold" font-size="14.00" fill="darkblue">X52</text>
<text text-anchor="start" x="50.5" y="-327.8" font-family="Courier,monospace" font-weight="bold" font-size="14.00">| </text>
<text text-anchor="start" x="67.5" y="-327.8" font-family="Courier,monospace" font-size="14.00">выкл ванная гр. 3+4 &#160;</text>
<text text-anchor="start" x="96" y="-310.8" font-family="Courier,monospace" font-size="14.00">Клеммники 3&#45;уровневые</text>
<text text-anchor="start" x="108.5" y="-295.8" font-family="Courier,monospace" font-size="14.00">Контрольные кабели</text>
<polygon fill="#e0e0e0" stroke="transparent" points="24.5,-275 24.5,-292 341.5,-292 341.5,-275 24.5,-275"/>
<polygon fill="none" stroke="black" points="24.5,-275 24.5,-292 341.5,-292 341.5,-275 24.5,-275"/>
<text text-anchor="start" x="25.5" y="-280.8" font-family="Courier,monospace" font-weight="bold" font-size="14.00" fill="darkblue">X61</text>
<text text-anchor="start" x="50.5" y="-280.8" font-family="Courier,monospace" font-weight="bold" font-size="14.00">| </text>
<text text-anchor="start" x="67.5" y="-280.8" font-family="Courier,monospace" font-size="14.00">выкл. эл.маг. клапанов (санузел) </text>
<polygon fill="#e0e0e0" stroke="transparent" points="24.5,-258 24.5,-275 341.5,-275 341.5,-258 24.5,-258"/>
<polygon fill="none" stroke="black" points="24.5,-258 24.5,-275 341.5,-275 341.5,-258 24.5,-258"/>
<text text-anchor="start" x="25.5" y="-263.8" font-family="Courier,monospace" font-weight="bold" font-size="14.00" fill="darkblue">X62</text>
<text text-anchor="start" x="50.5" y="-263.8" font-family="Courier,monospace" font-weight="bold" font-size="14.00">| </text>
<text text-anchor="start" x="67.5" y="-263.8" font-family="Courier,monospace" font-size="14.00">выкл. эл.маг. клапанов (кухня) </text>
<polygon fill="#e0e0e0" stroke="transparent" points="24.5,-241 24.5,-258 341.5,-258 341.5,-241 24.5,-241"/>
<polygon fill="none" stroke="black" points="24.5,-241 24.5,-258 341.5,-258 341.5,-241 24.5,-241"/>
<text text-anchor="start" x="25.5" y="-246.8" font-family="Courier,monospace" font-weight="bold" font-size="14.00" fill="darkblue">X63</text>
<text text-anchor="start" x="50.5" y="-246.8" font-family="Courier,monospace" font-weight="bold" font-size="14.00">| </text>
<text text-anchor="start" x="67.5" y="-246.8" font-family="Courier,monospace" font-size="14.00">дат протечки санузел </text>
<polygon fill="#e0e0e0" stroke="transparent" points="24.5,-224 24.5,-241 341.5,-241 341.5,-224 24.5,-224"/>
<polygon fill="none" stroke="black" points="24.5,-224 24.5,-241 341.5,-241 341.5,-224 24.5,-224"/>
<text text-anchor="start" x="25.5" y="-229.8" font-family="Courier,monospace" font-weight="bold" font-size="14.00" fill="darkblue">X64</text>
<text text-anchor="start" x="50.5" y="-229.8" font-family="Courier,monospace" font-weight="bold" font-size="14.00">| </text>
<text text-anchor="start" x="67.5" y="-229.8" font-family="Courier,monospace" font-size="14.00">дат протечки кухня </text>
<polygon fill="#e0e0e0" stroke="transparent" points="24.5,-207 24.5,-224 341.5,-224 341.5,-207 24.5,-207"/>
<polygon fill="none" stroke="black" points="24.5,-207 24.5,-224 341.5,-224 341.5,-207 24.5,-207"/>
<text text-anchor="start" x="25.5" y="-212.8" font-family="Courier,monospace" font-weight="bold" font-size="14.00" fill="darkblue">X65</text>
<text text-anchor="start" x="50.5" y="-212.8" font-family="Courier,monospace" font-weight="bold" font-size="14.00">| </text>
<text text-anchor="start" x="67.5" y="-212.8" font-family="Courier,monospace" font-size="14.00">серво санузел 1 </text>
<polygon fill="#e0e0e0" stroke="transparent" points="24.5,-190 24.5,-207 341.5,-207 341.5,-190 24.5,-190"/>
<polygon fill="none" stroke="black" points="24.5,-190 24.5,-207 341.5,-207 341.5,-190 24.5,-190"/>
<text text-anchor="start" x="25.5" y="-195.8" font-family="Courier,monospace" font-weight="bold" font-size="14.00" fill="darkblue">X66</text>
<text text-anchor="start" x="50.5" y="-195.8" font-family="Courier,monospace" font-weight="bold" font-size="14.00">| </text>
<text text-anchor="start" x="67.5" y="-195.8" font-family="Courier,monospace" font-size="14.00">серво санузел 2 </text>
<polygon fill="#e0e0e0" stroke="transparent" points="24.5,-173 24.5,-190 341.5,-190 341.5,-173 24.5,-173"/>
<polygon fill="none" stroke="black" points="24.5,-173 24.5,-190 341.5,-190 341.5,-173 24.5,-173"/>
<text text-anchor="start" x="25.5" y="-178.8" font-family="Courier,monospace" font-weight="bold" font-size="14.00" fill="darkblue">X67</text>
<text text-anchor="start" x="50.5" y="-178.8" font-family="Courier,monospace" font-weight="bold" font-size="14.00">| </text>
<text text-anchor="start" x="67.5" y="-178.8" font-family="Courier,monospace" font-size="14.00">эл.маг. клапаны 1 (санузел) </text>
<polygon fill="#e0e0e0" stroke="transparent" points="24.5,-156 24.5,-173 341.5,-173 341.5,-156 24.5,-156"/>
<polygon fill="none" stroke="black" points="24.5,-156 24.5,-173 341.5,-173 341.5,-156 24.5,-156"/>
<text text-anchor="start" x="25.5" y="-161.8" font-family="Courier,monospace" font-weight="bold" font-size="14.00" fill="darkblue">X68</text>
<text text-anchor="start" x="50.5" y="-161.8" font-family="Courier,monospace" font-weight="bold" font-size="14.00">| </text>
<text text-anchor="start" x="67.5" y="-161.8" font-family="Courier,monospace" font-size="14.00">эл.маг. клапаны 2 (кухня) </text>
<polygon fill="#e0e0e0" stroke="transparent" points="24.5,-139 24.5,-156 341.5,-156 341.5,-139 24.5,-139"/>
<polygon fill="none" stroke="black" points="24.5,-139 24.5,-156 341.5,-156 341.5,-139 24.5,-139"/>
<text text-anchor="start" x="25.5" y="-144.8" font-family="Courier,monospace" font-weight="bold" font-size="14.00" fill="darkblue">X69</text>
<text text-anchor="start" x="50.5" y="-144.8" font-family="Courier,monospace" font-weight="bold" font-size="14.00">| </text>
<text text-anchor="start" x="67.5" y="-144.8" font-family="Courier,monospace" font-size="14.00">подсв кн санузел 1 </text>
<polygon fill="#e0e0e0" stroke="transparent" points="24.5,-122 24.5,-139 341.5,-139 341.5,-122 24.5,-122"/>
<polygon fill="none" stroke="black" points="24.5,-122 24.5,-139 341.5,-139 341.5,-122 24.5,-122"/>
<text text-anchor="start" x="25.5" y="-127.8" font-family="Courier,monospace" font-weight="bold" font-size="14.00" fill="darkblue">X70</text>
<text text-anchor="start" x="50.5" y="-127.8" font-family="Courier,monospace" font-weight="bold" font-size="14.00">| </text>
<text text-anchor="start" x="67.5" y="-127.8" font-family="Courier,monospace" font-size="14.00">подсв кн санузел 2 </text>
<polygon fill="#e0e0e0" stroke="transparent" points="24.5,-105 24.5,-122 341.5,-122 341.5,-105 24.5,-105"/>
<polygon fill="none" stroke="black" points="24.5,-105 24.5,-122 341.5,-122 341.5,-105 24.5,-105"/>
<text text-anchor="start" x="25.5" y="-110.8" font-family="Courier,monospace" font-weight="bold" font-size="14.00" fill="darkblue">X71</text>
<text text-anchor="start" x="50.5" y="-110.8" font-family="Courier,monospace" font-weight="bold" font-size="14.00">| </text>
<text text-anchor="start" x="67.5" y="-110.8" font-family="Courier,monospace" font-size="14.00">мастер </text>
<polygon fill="#e0e0e0" stroke="transparent" points="24.5,-88 24.5,-105 341.5,-105 341.5,-88 24.5,-88"/>
<polygon fill="none" stroke="black" points="24.5,-88 24.5,-105 341.5,-105 341.5,-88 24.5,-88"/>
<text text-anchor="start" x="25.5" y="-93.8" font-family="Courier,monospace" font-weight="bold" font-size="14.00" fill="darkblue">X72</text>
<text text-anchor="start" x="50.5" y="-93.8" font-family="Courier,monospace" font-weight="bold" font-size="14.00">| </text>
<text text-anchor="start" x="67.5" y="-93.8" font-family="Courier,monospace" font-size="14.00">сантех. шкаф резерв </text>
<polygon fill="#e0e0e0" stroke="transparent" points="24.5,-71 24.5,-88 341.5,-88 341.5,-71 24.5,-71"/>
<polygon fill="none" stroke="black" points="24.5,-71 24.5,-88 341.5,-88 341.5,-71 24.5,-71"/>
<text text-anchor="start" x="25.5" y="-76.8" font-family="Courier,monospace" font-weight="bold" font-size="14.00" fill="darkblue">X73</text>
<text text-anchor="start" x="50.5" y="-76.8" font-family="Courier,monospace" font-weight="bold" font-size="14.00">| </text>
<text text-anchor="start" x="67.5" y="-76.8" font-family="Courier,monospace" font-size="14.00">упр. вент. санузел 1 </text>
<polygon fill="#e0e0e0" stroke="transparent" points="24.5,-54 24.5,-71 341.5,-71 341.5,-54 24.5,-54"/>
<polygon fill="none" stroke="black" points="24.5,-54 24.5,-71 341.5,-71 341.5,-54 24.5,-54"/>
<text text-anchor="start" x="25.5" y="-59.8" font-family="Courier,monospace" font-weight="bold" font-size="14.00" fill="darkblue">X74</text>
<text text-anchor="start" x="50.5" y="-59.8" font-family="Courier,monospace" font-weight="bold" font-size="14.00">| </text>
<text text-anchor="start" x="67.5" y="-59.8" font-family="Courier,monospace" font-size="14.00">упр. вент. санузел 2 </text>
<polygon fill="#e0e0e0" stroke="transparent" points="24.5,-37 24.5,-54 341.5,-54 341.5,-37 24.5,-37"/>
<polygon fill="none" stroke="black" points="24.5,-37 24.5,-54 341.5,-54 341.5,-37 24.5,-37"/>
<text text-anchor="start" x="25.5" y="-42.8" font-family="Courier,monospace" font-weight="bold" font-size="14.00" fill="darkblue">X75</text>
<text text-anchor="start" x="50.5" y="-42.8" font-family="Courier,monospace" font-weight="bold" font-size="14.00">| </text>
<text text-anchor="start" x="67.5" y="-42.8" font-family="Courier,monospace" font-size="14.00">упр. вент. кухни 1 </text>
<polygon fill="#e0e0e0" stroke="transparent" points="24.5,-20 24.5,-37 341.5,-37 341.5,-20 24.5,-20"/>
<polygon fill="none" stroke="black" points="24.5,-20 24.5,-37 341.5,-37 341.5,-20 24.5,-20"/>
<text text-anchor="start" x="25.5" y="-25.8" font-family="Courier,monospace" font-weight="bold" font-size="14.00" fill="darkblue">X76</text>
<text text-anchor="start" x="50.5" y="-25.8" font-family="Courier,monospace" font-weight="bold" font-size="14.00">| </text>
<text text-anchor="start" x="67.5" y="-25.8" font-family="Courier,monospace" font-size="14.00">упр. вент. кухни 2 </text>
</g>
</g>
</svg>
